<svg width="1409" height="1024" viewBox="0 0 1409 1024" fill="none" xmlns="http://www.w3.org/2000/svg">
<path d="M25.7899 738V274.602H107.877L256.165 625.461H258.813L406.438 274.602H488.526V738H432.918V358.676H430.27L296.547 671.8H218.431L84.0456 358.676H81.3976V738H25.7899ZM698.42 745.944C667.527 745.944 639.723 738.883 615.009 724.76C590.294 710.637 570.655 690.778 556.091 665.18C541.968 639.142 534.907 608.69 534.907 573.825C534.907 538.96 542.189 508.728 556.753 483.131C571.317 457.093 590.956 437.012 615.671 422.889C640.826 408.767 668.851 401.706 699.744 401.706C730.637 401.706 758.441 408.767 783.156 422.889C807.87 437.012 827.289 457.093 841.412 483.131C855.975 508.728 863.257 538.96 863.257 573.825C863.257 608.69 855.975 639.142 841.412 665.18C826.848 690.778 806.988 710.637 781.832 724.76C757.117 738.883 729.313 745.944 698.42 745.944ZM698.42 702.914C717.397 702.914 735.051 698.28 751.38 689.012C767.709 679.303 780.949 664.96 791.1 645.982C801.25 627.005 806.326 602.953 806.326 573.825C806.326 544.697 801.25 520.644 791.1 501.667C781.39 482.248 768.371 467.905 752.042 458.637C735.713 449.369 718.28 444.735 699.744 444.735C681.208 444.735 663.555 449.369 646.784 458.637C630.455 467.905 617.215 482.248 607.065 501.667C596.914 520.644 591.839 544.697 591.839 573.825C591.839 602.953 596.914 627.005 607.065 645.982C617.215 664.96 630.234 679.303 646.122 689.012C662.452 698.28 679.884 702.914 698.42 702.914ZM1023.7 738C1003.84 738 986.632 734.911 972.068 728.732C957.504 722.553 946.25 712.182 938.306 697.618C930.803 682.613 927.052 662.532 927.052 637.376V449.369H870.12V409.649H927.052L933.672 330.872H982.66V409.649H1079.31V449.369H982.66V637.376C982.66 660.326 986.853 675.772 995.238 683.716C1003.62 691.219 1018.41 694.97 1039.59 694.97H1074.02V738H1023.7ZM1120.47 738V409.649H1176.08V738H1120.47ZM1148.27 344.112C1137.24 344.112 1127.97 340.36 1120.47 332.858C1112.97 325.355 1109.22 316.087 1109.22 305.054C1109.22 294.462 1112.97 285.415 1120.47 277.912C1127.97 270.409 1137.24 266.658 1148.27 266.658C1158.86 266.658 1167.91 270.409 1175.41 277.912C1182.92 285.415 1186.67 294.683 1186.67 305.716C1186.67 316.308 1182.92 325.355 1175.41 332.858C1167.91 340.36 1158.86 344.112 1148.27 344.112ZM1269.59 738V365.958C1269.59 344.774 1273.12 327.562 1280.19 314.322C1287.25 300.641 1297.62 290.711 1311.3 284.532C1325.42 277.912 1342.63 274.602 1362.94 274.602H1396.04V317.632H1371.54C1355.21 317.632 1343.3 321.163 1335.79 328.224C1328.73 334.844 1325.2 346.76 1325.2 363.972V738H1269.59ZM1219.94 449.369V409.649H1405.97V449.369H1219.94Z" fill="black"/>
</svg>
